<svg xmlns="http://www.w3.org/2000/svg" viewBox="0 0 237 78" style="width:160px;height:auto;display:inline-block;" aria-label="Noteracker">
      <g transform="translate(15.975,52.799) scale(1.5)"><path d="M 5.1875 -12.921875 L 8.734375 0 L 11.96875 0 L 11.96875 -24.78125 L 8.625 -24.78125 L 8.625 -10.71875 L 8.4375 -10.71875 L 8.125 -11.875 L 4.578125 -24.78125 L 1.34375 -24.78125 L 1.34375 0 L 4.6875 0 L 4.6875 -14.0625 L 4.890625 -14.0625 Z" fill="#ffffff"/></g>
      <g transform="translate(39.747,52.799) scale(1.5)"><path d="M 10.828125 -5.09375 L 10.828125 -19.6875 C 10.773438 -20.695312 10.570312 -21.585938 10.21875 -22.359375 C 10.0625 -22.691406 9.863281 -23.019531 9.625 -23.34375 C 9.382812 -23.675781 9.097656 -23.960938 8.765625 -24.203125 C 8.429688 -24.453125 8.03125 -24.65625 7.5625 -24.8125 C 7.101562 -24.96875 6.570312 -25.046875 5.96875 -25.046875 C 5.363281 -25.046875 4.820312 -24.96875 4.34375 -24.8125 C 3.875 -24.65625 3.472656 -24.453125 3.140625 -24.203125 C 2.796875 -23.960938 2.507812 -23.675781 2.28125 -23.34375 C 2.0625 -23.019531 1.875 -22.691406 1.71875 -22.359375 C 1.363281 -21.585938 1.160156 -20.695312 1.109375 -19.6875 L 1.109375 -5.09375 C 1.160156 -4.0625 1.363281 -3.160156 1.71875 -2.390625 C 1.875 -2.054688 2.0625 -1.726562 2.28125 -1.40625 C 2.507812 -1.09375 2.796875 -0.816406 3.140625 -0.578125 C 3.835938 -0.015625 4.78125 0.265625 5.96875 0.265625 C 7.132812 0.265625 8.066406 -0.015625 8.765625 -0.578125 C 9.097656 -0.816406 9.382812 -1.09375 9.625 -1.40625 C 9.863281 -1.726562 10.0625 -2.054688 10.21875 -2.390625 C 10.570312 -3.160156 10.773438 -4.0625 10.828125 -5.09375 Z M 7.1875 -19.6875 L 7.1875 -5.09375 C 7.1875 -4.6875 7.140625 -4.382812 7.046875 -4.1875 C 6.984375 -3.9375 6.863281 -3.71875 6.6875 -3.53125 C 6.519531 -3.351562 6.28125 -3.265625 5.96875 -3.265625 C 5.675781 -3.265625 5.441406 -3.359375 5.265625 -3.546875 C 4.921875 -3.921875 4.75 -4.4375 4.75 -5.09375 L 4.75 -19.6875 C 4.75 -20.050781 4.796875 -20.359375 4.890625 -20.609375 C 4.953125 -20.828125 5.066406 -21.03125 5.234375 -21.21875 C 5.410156 -21.414062 5.65625 -21.515625 5.96875 -21.515625 C 6.28125 -21.515625 6.523438 -21.425781 6.703125 -21.25 C 7.023438 -20.863281 7.1875 -20.34375 7.1875 -19.6875 Z" fill="#ffffff"/></g>
      <g transform="translate(61.445,52.799) scale(1.5)"><path d="M 0.0625 -21.046875 L 3.5 -21.046875 L 3.5 0 L 7.140625 0 L 7.140625 -21.046875 L 10.59375 -21.046875 L 10.59375 -24.78125 L 0.0625 -24.78125 Z" fill="#ffffff"/></g>
      <g transform="translate(81.222,52.799) scale(1.5)"><path d="M 1.34375 -24.78125 L 1.34375 0 L 9.671875 0 L 9.671875 -3.75 L 4.984375 -3.75 L 4.984375 -10.546875 L 8.359375 -10.546875 L 8.359375 -14.53125 L 4.984375 -14.53125 L 4.984375 -21.046875 L 9.671875 -21.046875 L 9.671875 -24.78125 Z" fill="#ffffff"/></g>
      <g transform="translate(100.543,52.799) scale(1.5)"><path d="M 7.859375 0 L 11.5 0 L 9.171875 -12 C 9.867188 -12.476562 10.378906 -13.226562 10.703125 -14.25 C 11.023438 -15.269531 11.1875 -16.398438 11.1875 -17.640625 C 11.1875 -19.972656 10.695312 -21.742188 9.71875 -22.953125 C 8.75 -24.171875 7.171875 -24.78125 4.984375 -24.78125 L 1.34375 -24.78125 L 1.34375 0 L 4.984375 0 L 4.984375 -10.453125 L 5.96875 -10.453125 Z M 4.984375 -13.828125 L 4.984375 -21.171875 C 5.234375 -21.171875 5.515625 -21.148438 5.828125 -21.109375 C 6.148438 -21.066406 6.441406 -20.921875 6.703125 -20.671875 C 6.972656 -20.441406 7.203125 -20.070312 7.390625 -19.5625 C 7.585938 -19.0625 7.6875 -18.375 7.6875 -17.5 C 7.6875 -16.625 7.585938 -15.941406 7.390625 -15.453125 C 7.203125 -14.972656 6.972656 -14.609375 6.703125 -14.359375 C 6.441406 -14.140625 6.148438 -13.992188 5.828125 -13.921875 C 5.515625 -13.859375 5.234375 -13.828125 4.984375 -13.828125 Z" fill="#ffffff"/></g>
      <g transform="translate(122.596,52.799) scale(1.5)"><path d="M 0.34375 0 L 3.875 0 L 4.546875 -5.0625 L 8.0625 -5.0625 L 8.734375 0 L 12.28125 0 L 8.53125 -24.78125 L 4.078125 -24.78125 Z M 6.5 -16.71875 L 7.546875 -8.90625 L 5.0625 -8.90625 L 6.109375 -16.71875 L 6.203125 -17.359375 L 6.40625 -17.359375 Z" fill="#ffffff"/></g>
      <g transform="translate(145.305,52.799) scale(1.5)"><path d="M 10.828125 -8.5 L 7.421875 -8.5 L 7.421875 -5.09375 C 7.421875 -4.6875 7.375 -4.382812 7.28125 -4.1875 C 7.1875 -3.9375 7.050781 -3.71875 6.875 -3.53125 C 6.695312 -3.351562 6.414062 -3.265625 6.03125 -3.265625 C 5.738281 -3.265625 5.503906 -3.359375 5.328125 -3.546875 C 4.960938 -3.921875 4.769531 -4.4375 4.75 -5.09375 L 4.75 -19.6875 C 4.769531 -19.875 4.789062 -20.039062 4.8125 -20.1875 C 4.84375 -20.332031 4.878906 -20.472656 4.921875 -20.609375 C 5.015625 -20.828125 5.144531 -21.03125 5.3125 -21.21875 C 5.476562 -21.414062 5.71875 -21.515625 6.03125 -21.515625 C 6.414062 -21.515625 6.695312 -21.425781 6.875 -21.25 C 7.238281 -20.863281 7.421875 -20.34375 7.421875 -19.6875 L 7.421875 -16.28125 L 10.828125 -16.28125 L 10.828125 -19.6875 C 10.773438 -20.695312 10.570312 -21.585938 10.21875 -22.359375 C 10.0625 -22.691406 9.863281 -23.019531 9.625 -23.34375 C 9.382812 -23.675781 9.097656 -23.960938 8.765625 -24.203125 C 8.429688 -24.453125 8.03125 -24.65625 7.5625 -24.8125 C 7.101562 -24.96875 6.570312 -25.046875 5.96875 -25.046875 C 5.363281 -25.046875 4.820312 -24.96875 4.34375 -24.8125 C 3.875 -24.65625 3.472656 -24.453125 3.140625 -24.203125 C 2.796875 -23.960938 2.507812 -23.675781 2.28125 -23.34375 C 2.0625 -23.019531 1.875 -22.691406 1.71875 -22.359375 C 1.363281 -21.585938 1.160156 -20.695312 1.109375 -19.6875 L 1.109375 -5.09375 C 1.160156 -4.0625 1.363281 -3.160156 1.71875 -2.390625 C 1.875 -2.054688 2.0625 -1.726562 2.28125 -1.40625 C 2.507812 -1.09375 2.796875 -0.816406 3.140625 -0.578125 C 3.835938 -0.015625 4.78125 0.265625 5.96875 0.265625 C 7.132812 0.265625 8.066406 -0.015625 8.765625 -0.578125 C 9.097656 -0.816406 9.382812 -1.09375 9.625 -1.40625 C 9.863281 -1.726562 10.0625 -2.054688 10.21875 -2.390625 C 10.570312 -3.160156 10.773438 -4.0625 10.828125 -5.09375 Z" fill="#ffffff"/></g>
      <g transform="translate(166.599,52.799) scale(1.5)"><path d="M 4.984375 -24.78125 L 1.34375 -24.78125 L 1.34375 0 L 4.984375 0 L 4.984375 -8.765625 L 5.828125 -10.796875 L 6.03125 -11.296875 L 6.140625 -11.296875 L 6.234375 -10.796875 L 8.765625 0 L 12.3125 0 L 8.53125 -16.625 L 11.875 -24.78125 L 8.328125 -24.78125 L 5.296875 -16.515625 L 5.125 -16.125 L 4.984375 -16.125 Z" fill="#ffffff"/></g>
      <g transform="translate(189.360,52.799) scale(1.5)"><path d="M 1.34375 -24.78125 L 1.34375 0 L 9.671875 0 L 9.671875 -3.75 L 4.984375 -3.75 L 4.984375 -10.546875 L 8.359375 -10.546875 L 8.359375 -14.53125 L 4.984375 -14.53125 L 4.984375 -21.046875 L 9.671875 -21.046875 L 9.671875 -24.78125 Z" fill="#ffffff"/></g>
      <g transform="translate(208.681,52.799) scale(1.5)"><path d="M 7.859375 0 L 11.5 0 L 9.171875 -12 C 9.867188 -12.476562 10.378906 -13.226562 10.703125 -14.25 C 11.023438 -15.269531 11.1875 -16.398438 11.1875 -17.640625 C 11.1875 -19.972656 10.695312 -21.742188 9.71875 -22.953125 C 8.75 -24.171875 7.171875 -24.78125 4.984375 -24.78125 L 1.34375 -24.78125 L 1.34375 0 L 4.984375 0 L 4.984375 -10.453125 L 5.96875 -10.453125 Z M 4.984375 -13.828125 L 4.984375 -21.171875 C 5.234375 -21.171875 5.515625 -21.148438 5.828125 -21.109375 C 6.148438 -21.066406 6.441406 -20.921875 6.703125 -20.671875 C 6.972656 -20.441406 7.203125 -20.070312 7.390625 -19.5625 C 7.585938 -19.0625 7.6875 -18.375 7.6875 -17.5 C 7.6875 -16.625 7.585938 -15.941406 7.390625 -15.453125 C 7.203125 -14.972656 6.972656 -14.609375 6.703125 -14.359375 C 6.441406 -14.140625 6.148438 -13.992188 5.828125 -13.921875 C 5.515625 -13.859375 5.234375 -13.828125 4.984375 -13.828125 Z" fill="#ffffff"/></g>
      <g transform="translate(87.368,73.945) scale(1.5)"><path d="M 4.3125 -10.578125 L 6.390625 -10.78125 C 6.390625 -11.1875 6.351562 -11.613281 6.28125 -12.0625 C 6.207031 -12.519531 6.066406 -12.945312 5.859375 -13.34375 C 5.648438 -13.71875 5.351562 -14.023438 4.96875 -14.265625 C 4.582031 -14.515625 4.066406 -14.628906 3.421875 -14.609375 C 2.921875 -14.597656 2.492188 -14.488281 2.140625 -14.28125 C 1.785156 -14.082031 1.5 -13.828125 1.28125 -13.515625 C 1.050781 -13.179688 0.890625 -12.816406 0.796875 -12.421875 C 0.703125 -12.023438 0.65625 -11.628906 0.65625 -11.234375 C 0.65625 -10.835938 0.710938 -10.453125 0.828125 -10.078125 C 1.035156 -9.328125 1.382812 -8.578125 1.875 -7.828125 C 2.101562 -7.460938 2.328125 -7.113281 2.546875 -6.78125 C 2.773438 -6.457031 2.992188 -6.144531 3.203125 -5.84375 C 3.304688 -5.695312 3.398438 -5.550781 3.484375 -5.40625 C 3.578125 -5.257812 3.664062 -5.117188 3.75 -4.984375 C 3.914062 -4.691406 4.050781 -4.410156 4.15625 -4.140625 C 4.257812 -3.867188 4.3125 -3.617188 4.3125 -3.390625 C 4.3125 -2.921875 4.242188 -2.535156 4.109375 -2.234375 C 3.984375 -1.941406 3.757812 -1.796875 3.4375 -1.796875 C 3.21875 -1.796875 3.039062 -1.863281 2.90625 -2 C 2.78125 -2.144531 2.679688 -2.335938 2.609375 -2.578125 C 2.535156 -2.796875 2.488281 -3.050781 2.46875 -3.34375 C 2.445312 -3.644531 2.4375 -3.945312 2.4375 -4.25 L 0.359375 -4.046875 C 0.359375 -3.515625 0.394531 -2.992188 0.46875 -2.484375 C 0.539062 -1.984375 0.679688 -1.535156 0.890625 -1.140625 C 1.109375 -0.742188 1.414062 -0.425781 1.8125 -0.1875 C 2.21875 0.0390625 2.757812 0.15625 3.4375 0.15625 C 4.019531 0.15625 4.5 0.0546875 4.875 -0.140625 C 5.257812 -0.347656 5.5625 -0.613281 5.78125 -0.9375 C 6.007812 -1.28125 6.164062 -1.664062 6.25 -2.09375 C 6.34375 -2.53125 6.390625 -2.992188 6.390625 -3.484375 C 6.390625 -3.878906 6.332031 -4.257812 6.21875 -4.625 C 6.101562 -5 5.953125 -5.375 5.765625 -5.75 C 5.578125 -6.113281 5.363281 -6.476562 5.125 -6.84375 C 4.894531 -7.207031 4.65625 -7.578125 4.40625 -7.953125 C 4.195312 -8.253906 3.992188 -8.546875 3.796875 -8.828125 C 3.597656 -9.117188 3.421875 -9.398438 3.265625 -9.671875 C 3.109375 -9.953125 2.976562 -10.21875 2.875 -10.46875 C 2.78125 -10.726562 2.734375 -10.984375 2.734375 -11.234375 C 2.734375 -11.648438 2.785156 -11.988281 2.890625 -12.25 C 2.992188 -12.519531 3.1875 -12.660156 3.46875 -12.671875 C 3.632812 -12.671875 3.769531 -12.609375 3.875 -12.484375 C 3.988281 -12.359375 4.082031 -12.195312 4.15625 -12 C 4.21875 -11.789062 4.257812 -11.5625 4.28125 -11.3125 C 4.300781 -11.0625 4.3125 -10.816406 4.3125 -10.578125 Z" fill="#d9d9d9"/></g>
      <g transform="translate(99.697,73.945) scale(1.5)"><path d="M 0.046875 -12.28125 L 2.046875 -12.28125 L 2.046875 0 L 4.171875 0 L 4.171875 -12.28125 L 6.171875 -12.28125 L 6.171875 -14.453125 L 0.046875 -14.453125 Z" fill="#d9d9d9"/></g>
      <g transform="translate(111.230,73.945) scale(1.5)"><path d="M 6.4375 -14.453125 L 4.3125 -14.453125 L 4.3125 -2.96875 C 4.3125 -2.726562 4.285156 -2.550781 4.234375 -2.4375 C 4.191406 -2.289062 4.117188 -2.164062 4.015625 -2.0625 C 3.921875 -1.957031 3.78125 -1.90625 3.59375 -1.90625 C 3.425781 -1.90625 3.289062 -1.957031 3.1875 -2.0625 C 2.988281 -2.289062 2.890625 -2.59375 2.890625 -2.96875 L 2.890625 -14.453125 L 0.765625 -14.453125 L 0.765625 -2.96875 C 0.796875 -2.363281 0.914062 -1.835938 1.125 -1.390625 C 1.21875 -1.203125 1.328125 -1.015625 1.453125 -0.828125 C 1.585938 -0.640625 1.753906 -0.472656 1.953125 -0.328125 C 2.359375 -0.00390625 2.90625 0.15625 3.59375 0.15625 C 4.28125 0.15625 4.828125 -0.00390625 5.234375 -0.328125 C 5.429688 -0.472656 5.597656 -0.640625 5.734375 -0.828125 C 5.867188 -1.015625 5.984375 -1.203125 6.078125 -1.390625 C 6.285156 -1.835938 6.40625 -2.363281 6.4375 -2.96875 Z" fill="#d9d9d9"/></g>
      <g transform="translate(124.237,73.945) scale(1.5)"><path d="M 0.78125 0 L 2.453125 0 C 3.441406 0 4.21875 -0.109375 4.78125 -0.328125 C 5.34375 -0.554688 5.769531 -0.945312 6.0625 -1.5 C 6.332031 -2.050781 6.503906 -2.785156 6.578125 -3.703125 C 6.648438 -4.628906 6.6875 -5.800781 6.6875 -7.21875 C 6.6875 -8.632812 6.648438 -9.804688 6.578125 -10.734375 C 6.503906 -11.671875 6.332031 -12.414062 6.0625 -12.96875 C 5.769531 -13.519531 5.34375 -13.90625 4.78125 -14.125 C 4.21875 -14.34375 3.441406 -14.453125 2.453125 -14.453125 L 0.78125 -14.453125 Z M 2.90625 -2.125 L 2.90625 -12.328125 C 3.28125 -12.328125 3.570312 -12.285156 3.78125 -12.203125 C 4 -12.117188 4.160156 -11.90625 4.265625 -11.5625 C 4.316406 -11.394531 4.359375 -11.179688 4.390625 -10.921875 C 4.429688 -10.671875 4.457031 -10.375 4.46875 -10.03125 C 4.476562 -9.6875 4.484375 -9.28125 4.484375 -8.8125 C 4.484375 -8.351562 4.484375 -7.828125 4.484375 -7.234375 C 4.484375 -6.648438 4.484375 -6.125 4.484375 -5.65625 C 4.484375 -5.1875 4.476562 -4.785156 4.46875 -4.453125 C 4.457031 -4.109375 4.429688 -3.804688 4.390625 -3.546875 C 4.359375 -3.296875 4.316406 -3.082031 4.265625 -2.90625 C 4.160156 -2.550781 4 -2.332031 3.78125 -2.25 C 3.570312 -2.164062 3.28125 -2.125 2.90625 -2.125 Z" fill="#d9d9d9"/></g>
      <g transform="translate(137.422,73.945) scale(1.5)"><path d="M 0.78125 -14.453125 L 0.78125 0 L 2.90625 0 L 2.90625 -14.453125 Z" fill="#d9d9d9"/></g>
      <g transform="translate(145.179,73.945) scale(1.5)"><path d="M 6.3125 -2.96875 L 6.3125 -11.484375 C 6.289062 -12.078125 6.171875 -12.597656 5.953125 -13.046875 C 5.867188 -13.242188 5.753906 -13.4375 5.609375 -13.625 C 5.472656 -13.8125 5.304688 -13.976562 5.109375 -14.125 C 4.910156 -14.269531 4.675781 -14.382812 4.40625 -14.46875 C 4.144531 -14.5625 3.835938 -14.609375 3.484375 -14.609375 C 3.128906 -14.609375 2.8125 -14.5625 2.53125 -14.46875 C 2.257812 -14.382812 2.023438 -14.269531 1.828125 -14.125 C 1.628906 -13.976562 1.460938 -13.8125 1.328125 -13.625 C 1.203125 -13.4375 1.09375 -13.242188 1 -13.046875 C 0.789062 -12.597656 0.675781 -12.078125 0.65625 -11.484375 L 0.65625 -2.96875 C 0.675781 -2.363281 0.789062 -1.835938 1 -1.390625 C 1.09375 -1.203125 1.203125 -1.015625 1.328125 -0.828125 C 1.460938 -0.640625 1.628906 -0.472656 1.828125 -0.328125 C 2.234375 -0.00390625 2.785156 0.15625 3.484375 0.15625 C 4.160156 0.15625 4.703125 -0.00390625 5.109375 -0.328125 C 5.304688 -0.472656 5.472656 -0.640625 5.609375 -0.828125 C 5.753906 -1.015625 5.867188 -1.203125 5.953125 -1.390625 C 6.171875 -1.835938 6.289062 -2.363281 6.3125 -2.96875 Z M 4.1875 -11.484375 L 4.1875 -2.96875 C 4.1875 -2.726562 4.160156 -2.550781 4.109375 -2.4375 C 4.066406 -2.289062 3.992188 -2.164062 3.890625 -2.0625 C 3.796875 -1.957031 3.660156 -1.90625 3.484375 -1.90625 C 3.304688 -1.90625 3.164062 -1.957031 3.0625 -2.0625 C 2.875 -2.289062 2.78125 -2.59375 2.78125 -2.96875 L 2.78125 -11.484375 C 2.78125 -11.691406 2.804688 -11.867188 2.859375 -12.015625 C 2.890625 -12.148438 2.953125 -12.269531 3.046875 -12.375 C 3.148438 -12.488281 3.296875 -12.546875 3.484375 -12.546875 C 3.660156 -12.546875 3.804688 -12.492188 3.921875 -12.390625 C 4.097656 -12.171875 4.1875 -11.867188 4.1875 -11.484375 Z" fill="#d9d9d9"/></g>
    </svg>